# xmcd CD database file generated by OrangeCD 6.0
#
# Track frame offsets:
#	150
#	15788
#	43387
#	67420
#	81104
#	96383
#	119850
#	145288
#	163371
#	188858
#	208665
#	232706
#
# Disc length: 3437 seconds
#
# Revision: 1
# Processed by: cddbd v1.5.2PL0 Copyright (c) Steve Scherf et al.
# Submitted via: OrangeCD 6.0
#
DISCID=b20d6b0c
DTITLE=Diana Krall - From this Moment on
DYEAR=2006
DGENRE=Jazz
TTITLE0=It could happen to you
TTITLE1=Isn't this a lovely day
TTITLE2=How insensitive
TTITLE3=Exactly like you
TTITLE4=From this moment on
TTITLE5=I was doing alright
TTITLE6=Little girl blue
TTITLE7=Day in , Day out
TTITLE8=Willow weep for me
TTITLE9=Come dance with me
TTITLE10=You can depend on me (It was a beautiful day in august)
TTITLE11=The boulevard of broken dreams
EXTD=YEAR: 2006
EXTT0=
EXTT1=
EXTT2=
EXTT3=
EXTT4=
EXTT5=
EXTT6=
EXTT7=
EXTT8=
EXTT9=
EXTT10=
EXTT11=
PLAYORDER=
